  0
SECTION
  2
HEADER
  0
ENDSEC
  0
SECTION
  2
TABLES
  0
TABLE
  2
LAYER
  0
LAYER
  2
CHEMINEMENTS
 70
    64
 62
    1
  6
CONTINUOUS
  0
LAYER
  2
POINTS
 70
    64
 62
    6
  6
CONTINUOUS
  0
LAYER
  2
STATIONS
 70
    64
 62
    7
  6
CONTINUOUS
  0
LAYER
  2
PROFONDEURS
 70
    64
 62
    2
  6
CONTINUOUS
  0
LAYER
  2
HAUTEURS
 70
    64
 62
    4
  6
CONTINUOUS
  0
LAYER
  2
ECHELLE
 70
    64
 62
    7
  6
CONTINUOUS
  0
ENDTAB
  0
ENDSEC
  0
SECTION
  2
ENTITIES
  0
LINE
  8
CHEMINEMENTS
 10
    0.00
 20
    0.00
 30
    0.00
 11
    0.00
 21
    0.00
 31
    0.00
  0
CIRCLE
  8
POINTS
 10
    0.00
 20
    0.00
 30
    0.00
 40
    0.2
  0
LINE
  8
HAUTEURS
 10
    0.00
 20
    -0.20
 30
    0.00
 11
    0.00
 21
    0.40
 31
    0.00
  0
TEXT
  8
STATIONS
 10
    -0.20
 20
    0.00
 30
    0.00
 11
    -0.20
 21
    0.00
 31
    0.00
 40
    0.4
 72
    2
  1
0
  0
TEXT
  8
PROFONDEURS
 10
    0.20
 20
    0.00
 30
    0.00
 40
    0.6
  1
+0
  0
LINE
  8
CHEMINEMENTS
 10
    0.00
 20
    0.00
 30
    0.00
 11
    3.37
 21
    -0.05
 31
    0.00
  0
CIRCLE
  8
POINTS
 10
    3.37
 20
    -0.05
 30
    0.00
 40
    0.2
  0
LINE
  8
HAUTEURS
 10
    3.37
 20
    -0.35
 30
    0.00
 11
    3.37
 21
    0.25
 31
    0.00
  0
TEXT
  8
STATIONS
 10
    3.17
 20
    -0.05
 30
    0.00
 11
    3.17
 21
    -0.05
 31
    0.00
 40
    0.4
 72
    2
  1
1
  0
LINE
  8
CHEMINEMENTS
 10
    3.37
 20
    -0.05
 30
    0.00
 11
    6.14
 21
    0.25
 31
    0.00
  0
CIRCLE
  8
POINTS
 10
    6.14
 20
    0.25
 30
    0.00
 40
    0.2
  0
LINE
  8
HAUTEURS
 10
    6.14
 20
    -0.05
 30
    0.00
 11
    6.14
 21
    0.75
 31
    0.00
  0
TEXT
  8
STATIONS
 10
    5.94
 20
    0.25
 30
    0.00
 11
    5.94
 21
    0.25
 31
    0.00
 40
    0.4
 72
    2
  1
2
  0
LINE
  8
CHEMINEMENTS
 10
    6.14
 20
    0.25
 30
    0.00
 11
    9.82
 21
    2.84
 31
    0.00
  0
CIRCLE
  8
POINTS
 10
    9.82
 20
    2.84
 30
    0.00
 40
    0.2
  0
LINE
  8
HAUTEURS
 10
    9.82
 20
    1.84
 30
    0.00
 11
    9.82
 21
    5.04
 31
    0.00
  0
TEXT
  8
STATIONS
 10
    9.62
 20
    2.84
 30
    0.00
 11
    9.62
 21
    2.84
 31
    0.00
 40
    0.4
 72
    2
  1
3
  0
LINE
  8
CHEMINEMENTS
 10
    6.14
 20
    0.25
 30
    0.00
 11
    10.97
 21
    0.86
 31
    0.00
  0
CIRCLE
  8
POINTS
 10
    10.97
 20
    0.86
 30
    0.00
 40
    0.2
  0
LINE
  8
HAUTEURS
 10
    10.97
 20
    0.56
 30
    0.00
 11
    10.97
 21
    1.36
 31
    0.00
  0
TEXT
  8
STATIONS
 10
    10.77
 20
    0.86
 30
    0.00
 11
    10.77
 21
    0.86
 31
    0.00
 40
    0.4
 72
    2
  1
4
  0
LINE
  8
CHEMINEMENTS
 10
    10.97
 20
    0.86
 30
    0.00
 11
    12.35
 21
    2.70
 31
    0.00
  0
CIRCLE
  8
POINTS
 10
    12.35
 20
    2.70
 30
    0.00
 40
    0.2
  0
LINE
  8
HAUTEURS
 10
    12.35
 20
    -0.30
 30
    0.00
 11
    12.35
 21
    3.00
 31
    0.00
  0
TEXT
  8
STATIONS
 10
    12.15
 20
    2.70
 30
    0.00
 11
    12.15
 21
    2.70
 31
    0.00
 40
    0.4
 72
    2
  1
5
  0
LINE
  8
CHEMINEMENTS
 10
    12.35
 20
    2.70
 30
    0.00
 11
    14.72
 21
    4.31
 31
    0.00
  0
CIRCLE
  8
POINTS
 10
    14.72
 20
    4.31
 30
    0.00
 40
    0.2
  0
LINE
  8
HAUTEURS
 10
    14.72
 20
    4.01
 30
    0.00
 11
    14.72
 21
    4.61
 31
    0.00
  0
TEXT
  8
STATIONS
 10
    14.52
 20
    4.31
 30
    0.00
 11
    14.52
 21
    4.31
 31
    0.00
 40
    0.4
 72
    2
  1
6
  0
LINE
  8
CHEMINEMENTS
 10
    14.72
 20
    4.31
 30
    0.00
 11
    20.45
 21
    5.22
 31
    0.00
  0
CIRCLE
  8
POINTS
 10
    20.45
 20
    5.22
 30
    0.00
 40
    0.2
  0
LINE
  8
HAUTEURS
 10
    20.45
 20
    4.82
 30
    0.00
 11
    20.45
 21
    5.62
 31
    0.00
  0
TEXT
  8
STATIONS
 10
    20.25
 20
    5.22
 30
    0.00
 11
    20.25
 21
    5.22
 31
    0.00
 40
    0.4
 72
    2
  1
7
  0
LINE
  8
CHEMINEMENTS
 10
    20.45
 20
    5.22
 30
    0.00
 11
    20.45
 21
    5.22
 31
    0.00
  0
CIRCLE
  8
POINTS
 10
    20.45
 20
    5.22
 30
    0.00
 40
    0.2
  0
LINE
  8
HAUTEURS
 10
    20.45
 20
    4.82
 30
    0.00
 11
    20.45
 21
    10.22
 31
    0.00
  0
TEXT
  8
STATIONS
 10
    20.25
 20
    5.22
 30
    0.00
 11
    20.25
 21
    5.22
 31
    0.00
 40
    0.4
 72
    2
  1
8
  0
LINE
  8
CHEMINEMENTS
 10
    20.45
 20
    5.22
 30
    0.00
 11
    23.99
 21
    5.61
 31
    0.00
  0
CIRCLE
  8
POINTS
 10
    23.99
 20
    5.61
 30
    0.00
 40
    0.2
  0
LINE
  8
HAUTEURS
 10
    23.99
 20
    5.21
 30
    0.00
 11
    23.99
 21
    7.61
 31
    0.00
  0
TEXT
  8
STATIONS
 10
    23.79
 20
    5.61
 30
    0.00
 11
    23.79
 21
    5.61
 31
    0.00
 40
    0.4
 72
    2
  1
9
  0
LINE
  8
CHEMINEMENTS
 10
    23.99
 20
    5.61
 30
    0.00
 11
    29.24
 21
    7.13
 31
    0.00
  0
CIRCLE
  8
POINTS
 10
    29.24
 20
    7.13
 30
    0.00
 40
    0.2
  0
LINE
  8
HAUTEURS
 10
    29.24
 20
    6.13
 30
    0.00
 11
    29.24
 21
    11.13
 31
    0.00
  0
TEXT
  8
STATIONS
 10
    29.04
 20
    7.13
 30
    0.00
 11
    29.04
 21
    7.13
 31
    0.00
 40
    0.4
 72
    2
  1
10
  0
LINE
  8
CHEMINEMENTS
 10
    29.24
 20
    7.13
 30
    0.00
 11
    32.02
 21
    12.39
 31
    0.00
  0
CIRCLE
  8
POINTS
 10
    32.02
 20
    12.39
 30
    0.00
 40
    0.2
  0
LINE
  8
HAUTEURS
 10
    32.02
 20
    12.09
 30
    0.00
 11
    32.02
 21
    16.39
 31
    0.00
  0
TEXT
  8
STATIONS
 10
    31.82
 20
    12.39
 30
    0.00
 11
    31.82
 21
    12.39
 31
    0.00
 40
    0.4
 72
    2
  1
11
  0
LINE
  8
CHEMINEMENTS
 10
    32.02
 20
    12.39
 30
    0.00
 11
    35.18
 21
    13.88
 31
    0.00
  0
CIRCLE
  8
POINTS
 10
    35.18
 20
    13.88
 30
    0.00
 40
    0.2
  0
LINE
  8
HAUTEURS
 10
    35.18
 20
    12.88
 30
    0.00
 11
    35.18
 21
    20.48
 31
    0.00
  0
TEXT
  8
STATIONS
 10
    34.98
 20
    13.88
 30
    0.00
 11
    34.98
 21
    13.88
 31
    0.00
 40
    0.4
 72
    2
  1
12
  0
LINE
  8
CHEMINEMENTS
 10
    35.18
 20
    13.88
 30
    0.00
 11
    35.18
 21
    19.31
 31
    0.00
  0
CIRCLE
  8
POINTS
 10
    35.18
 20
    19.31
 30
    0.00
 40
    0.2
  0
LINE
  8
HAUTEURS
 10
    35.18
 20
    12.91
 30
    0.00
 11
    35.18
 21
    20.51
 31
    0.00
  0
TEXT
  8
STATIONS
 10
    34.98
 20
    19.31
 30
    0.00
 11
    34.98
 21
    19.31
 31
    0.00
 40
    0.4
 72
    2
  1
13
  0
LINE
  8
CHEMINEMENTS
 10
    35.18
 20
    19.31
 30
    0.00
 11
    37.78
 21
    19.93
 31
    0.00
  0
CIRCLE
  8
POINTS
 10
    37.78
 20
    19.93
 30
    0.00
 40
    0.2
  0
LINE
  8
HAUTEURS
 10
    37.78
 20
    19.43
 30
    0.00
 11
    37.78
 21
    20.73
 31
    0.00
  0
TEXT
  8
STATIONS
 10
    37.58
 20
    19.93
 30
    0.00
 11
    37.58
 21
    19.93
 31
    0.00
 40
    0.4
 72
    2
  1
14
  0
LINE
  8
CHEMINEMENTS
 10
    37.78
 20
    19.93
 30
    0.00
 11
    40.75
 21
    20.95
 31
    0.00
  0
CIRCLE
  8
POINTS
 10
    40.75
 20
    20.95
 30
    0.00
 40
    0.2
  0
LINE
  8
HAUTEURS
 10
    40.75
 20
    19.95
 30
    0.00
 11
    40.75
 21
    23.95
 31
    0.00
  0
TEXT
  8
STATIONS
 10
    40.55
 20
    20.95
 30
    0.00
 11
    40.55
 21
    20.95
 31
    0.00
 40
    0.4
 72
    2
  1
15
  0
LINE
  8
CHEMINEMENTS
 10
    40.75
 20
    20.95
 30
    0.00
 11
    44.90
 21
    20.95
 31
    0.00
  0
CIRCLE
  8
POINTS
 10
    44.90
 20
    20.95
 30
    0.00
 40
    0.2
  0
LINE
  8
HAUTEURS
 10
    44.90
 20
    16.95
 30
    0.00
 11
    44.90
 21
    21.95
 31
    0.00
  0
TEXT
  8
STATIONS
 10
    44.70
 20
    20.95
 30
    0.00
 11
    44.70
 21
    20.95
 31
    0.00
 40
    0.4
 72
    2
  1
16
  0
LINE
  8
CHEMINEMENTS
 10
    44.90
 20
    20.95
 30
    0.00
 11
    47.59
 21
    22.71
 31
    0.00
  0
CIRCLE
  8
POINTS
 10
    47.59
 20
    22.71
 30
    0.00
 40
    0.2
  0
LINE
  8
HAUTEURS
 10
    47.59
 20
    21.11
 30
    0.00
 11
    47.59
 21
    24.71
 31
    0.00
  0
TEXT
  8
STATIONS
 10
    47.39
 20
    22.71
 30
    0.00
 11
    47.39
 21
    22.71
 31
    0.00
 40
    0.4
 72
    2
  1
17
  0
LINE
  8
CHEMINEMENTS
 10
    44.90
 20
    20.95
 30
    0.00
 11
    48.54
 21
    21.23
 31
    0.00
  0
CIRCLE
  8
POINTS
 10
    48.54
 20
    21.23
 30
    0.00
 40
    0.2
  0
LINE
  8
HAUTEURS
 10
    48.54
 20
    20.23
 30
    0.00
 11
    48.54
 21
    23.73
 31
    0.00
  0
TEXT
  8
STATIONS
 10
    48.34
 20
    21.23
 30
    0.00
 11
    48.34
 21
    21.23
 31
    0.00
 40
    0.4
 72
    2
  1
18
  0
LINE
  8
CHEMINEMENTS
 10
    48.54
 20
    21.23
 30
    0.00
 11
    53.78
 21
    21.65
 31
    0.00
  0
CIRCLE
  8
POINTS
 10
    53.78
 20
    21.65
 30
    0.00
 40
    0.2
  0
LINE
  8
HAUTEURS
 10
    53.78
 20
    20.45
 30
    0.00
 11
    53.78
 21
    25.65
 31
    0.00
  0
TEXT
  8
STATIONS
 10
    53.58
 20
    21.65
 30
    0.00
 11
    53.58
 21
    21.65
 31
    0.00
 40
    0.4
 72
    2
  1
19
  0
LINE
  8
CHEMINEMENTS
 10
    53.78
 20
    21.65
 30
    0.00
 11
    55.05
 21
    24.71
 31
    0.00
  0
CIRCLE
  8
POINTS
 10
    55.05
 20
    24.71
 30
    0.00
 40
    0.2
  0
LINE
  8
HAUTEURS
 10
    55.05
 20
    23.71
 30
    0.00
 11
    55.05
 21
    25.31
 31
    0.00
  0
TEXT
  8
STATIONS
 10
    54.85
 20
    24.71
 30
    0.00
 11
    54.85
 21
    24.71
 31
    0.00
 40
    0.4
 72
    2
  1
20
  0
LINE
  8
CHEMINEMENTS
 10
    55.05
 20
    24.71
 30
    0.00
 11
    59.46
 21
    25.06
 31
    0.00
  0
CIRCLE
  8
POINTS
 10
    59.46
 20
    25.06
 30
    0.00
 40
    0.2
  0
LINE
  8
HAUTEURS
 10
    59.46
 20
    22.06
 30
    0.00
 11
    59.46
 21
    25.86
 31
    0.00
  0
TEXT
  8
STATIONS
 10
    59.26
 20
    25.06
 30
    0.00
 11
    59.26
 21
    25.06
 31
    0.00
 40
    0.4
 72
    2
  1
21
  0
LINE
  8
CHEMINEMENTS
 10
    59.46
 20
    25.06
 30
    0.00
 11
    62.17
 21
    25.71
 31
    0.00
  0
CIRCLE
  8
POINTS
 10
    62.17
 20
    25.71
 30
    0.00
 40
    0.2
  0
LINE
  8
HAUTEURS
 10
    62.17
 20
    25.71
 30
    0.00
 11
    62.17
 21
    26.11
 31
    0.00
  0
TEXT
  8
STATIONS
 10
    61.97
 20
    25.71
 30
    0.00
 11
    61.97
 21
    25.71
 31
    0.00
 40
    0.4
 72
    2
  1
22
  0
LINE
  8
CHEMINEMENTS
 10
    62.17
 20
    25.71
 30
    0.00
 11
    67.37
 21
    25.87
 31
    0.00
  0
CIRCLE
  8
POINTS
 10
    67.37
 20
    25.87
 30
    0.00
 40
    0.2
  0
LINE
  8
HAUTEURS
 10
    67.37
 20
    24.87
 30
    0.00
 11
    67.37
 21
    26.57
 31
    0.00
  0
TEXT
  8
STATIONS
 10
    67.17
 20
    25.87
 30
    0.00
 11
    67.17
 21
    25.87
 31
    0.00
 40
    0.4
 72
    2
  1
23
  0
LINE
  8
CHEMINEMENTS
 10
    67.37
 20
    25.87
 30
    0.00
 11
    71.54
 21
    26.54
 31
    0.00
  0
CIRCLE
  8
POINTS
 10
    71.54
 20
    26.54
 30
    0.00
 40
    0.2
  0
LINE
  8
HAUTEURS
 10
    71.54
 20
    26.24
 30
    0.00
 11
    71.54
 21
    26.74
 31
    0.00
  0
TEXT
  8
STATIONS
 10
    71.34
 20
    26.54
 30
    0.00
 11
    71.34
 21
    26.54
 31
    0.00
 40
    0.4
 72
    2
  1
24
  0
LINE
  8
CHEMINEMENTS
 10
    71.54
 20
    26.54
 30
    0.00
 11
    72.11
 21
    26.05
 31
    0.00
  0
CIRCLE
  8
POINTS
 10
    72.11
 20
    26.05
 30
    0.00
 40
    0.2
  0
LINE
  8
HAUTEURS
 10
    72.11
 20
    25.45
 30
    0.00
 11
    72.11
 21
    26.45
 31
    0.00
  0
TEXT
  8
STATIONS
 10
    71.91
 20
    26.05
 30
    0.00
 11
    71.91
 21
    26.05
 31
    0.00
 40
    0.4
 72
    2
  1
25
  0
LINE
  8
CHEMINEMENTS
 10
    72.11
 20
    26.05
 30
    0.00
 11
    75.03
 21
    26.81
 31
    0.00
  0
CIRCLE
  8
POINTS
 10
    75.03
 20
    26.81
 30
    0.00
 40
    0.2
  0
LINE
  8
HAUTEURS
 10
    75.03
 20
    26.31
 30
    0.00
 11
    75.03
 21
    28.31
 31
    0.00
  0
TEXT
  8
STATIONS
 10
    74.83
 20
    26.81
 30
    0.00
 11
    74.83
 21
    26.81
 31
    0.00
 40
    0.4
 72
    2
  1
26
  0
TEXT
  8
PROFONDEURS
 10
    75.23
 20
    26.81
 30
    0.00
 40
    0.6
  1
+27
  0
TEXT
  8
ECHELLE
 10
    0.00
 20
    -2.50
 30
    0.00
 40
    0.7
  1
0
  0
TEXT
  8
ECHELLE
 10
    21.07
 20
    -2.50
 30
    0.00
 40
    0.7
  1
20 m
  0
LINE
  8
ECHELLE
 10
    0.72
 20
    -1.79
 30
    0.00
 11
    20.72
 21
    -1.79
 31
    0.00
  0
LINE
  8
ECHELLE
 10
    20.72
 20
    -1.79
 30
    0.00
 11
    20.72
 21
    -2.50
 31
    0.00
  0
LINE
  8
ECHELLE
 10
    20.72
 20
    -2.50
 30
    0.00
 11
    0.72
 21
    -2.50
 31
    0.00
  0
LINE
  8
ECHELLE
 10
    0.72
 20
    -2.50
 30
    0.00
 11
    0.72
 21
    -1.79
 31
    0.00
  0
SOLID
  8
ECHELLE
 10
    0.72
 20
    -1.79
 30
    70391025765931616000000000000000000000000000000000000000000000000000000000000000000000000000000000000000000000000000000000000000000000000000000000000000000000000000000000000000000000000000000000000000000000000000000000000000000000000000000000000000000000000000000000000.00
 11
    2.72
 21
    -1.79
 31
    70391025765931616000000000000000000000000000000000000000000000000000000000000000000000000000000000000000000000000000000000000000000000000000000000000000000000000000000000000000000000000000000000000000000000000000000000000000000000000000000000000000000000000000000000000.00
 12
    0.72
 22
    -2.14
 32
    70391025765931616000000000000000000000000000000000000000000000000000000000000000000000000000000000000000000000000000000000000000000000000000000000000000000000000000000000000000000000000000000000000000000000000000000000000000000000000000000000000000000000000000000000000.00
 13
    2.72
 23
    -2.14
 33
    70391025765931616000000000000000000000000000000000000000000000000000000000000000000000000000000000000000000000000000000000000000000000000000000000000000000000000000000000000000000000000000000000000000000000000000000000000000000000000000000000000000000000000000000000000.00
  0
SOLID
  8
ECHELLE
 10
    2.72
 20
    -2.14
 30
    70391025765931616000000000000000000000000000000000000000000000000000000000000000000000000000000000000000000000000000000000000000000000000000000000000000000000000000000000000000000000000000000000000000000000000000000000000000000000000000000000000000000000000000000000000.00
 11
    4.72
 21
    -2.14
 31
    70391025765931616000000000000000000000000000000000000000000000000000000000000000000000000000000000000000000000000000000000000000000000000000000000000000000000000000000000000000000000000000000000000000000000000000000000000000000000000000000000000000000000000000000000000.00
 12
    2.72
 22
    -2.50
 32
    70391025765931616000000000000000000000000000000000000000000000000000000000000000000000000000000000000000000000000000000000000000000000000000000000000000000000000000000000000000000000000000000000000000000000000000000000000000000000000000000000000000000000000000000000000.00
 13
    4.72
 23
    -2.50
 33
    70391025765931616000000000000000000000000000000000000000000000000000000000000000000000000000000000000000000000000000000000000000000000000000000000000000000000000000000000000000000000000000000000000000000000000000000000000000000000000000000000000000000000000000000000000.00
  0
SOLID
  8
ECHELLE
 10
    4.72
 20
    -1.79
 30
    70391025765931616000000000000000000000000000000000000000000000000000000000000000000000000000000000000000000000000000000000000000000000000000000000000000000000000000000000000000000000000000000000000000000000000000000000000000000000000000000000000000000000000000000000000.00
 11
    6.72
 21
    -1.79
 31
    70391025765931616000000000000000000000000000000000000000000000000000000000000000000000000000000000000000000000000000000000000000000000000000000000000000000000000000000000000000000000000000000000000000000000000000000000000000000000000000000000000000000000000000000000000.00
 12
    4.72
 22
    -2.14
 32
    70391025765931616000000000000000000000000000000000000000000000000000000000000000000000000000000000000000000000000000000000000000000000000000000000000000000000000000000000000000000000000000000000000000000000000000000000000000000000000000000000000000000000000000000000000.00
 13
    6.72
 23
    -2.14
 33
    70391025765931616000000000000000000000000000000000000000000000000000000000000000000000000000000000000000000000000000000000000000000000000000000000000000000000000000000000000000000000000000000000000000000000000000000000000000000000000000000000000000000000000000000000000.00
  0
SOLID
  8
ECHELLE
 10
    6.72
 20
    -2.14
 30
    70391025765931616000000000000000000000000000000000000000000000000000000000000000000000000000000000000000000000000000000000000000000000000000000000000000000000000000000000000000000000000000000000000000000000000000000000000000000000000000000000000000000000000000000000000.00
 11
    8.72
 21
    -2.14
 31
    70391025765931616000000000000000000000000000000000000000000000000000000000000000000000000000000000000000000000000000000000000000000000000000000000000000000000000000000000000000000000000000000000000000000000000000000000000000000000000000000000000000000000000000000000000.00
 12
    6.72
 22
    -2.50
 32
    70391025765931616000000000000000000000000000000000000000000000000000000000000000000000000000000000000000000000000000000000000000000000000000000000000000000000000000000000000000000000000000000000000000000000000000000000000000000000000000000000000000000000000000000000000.00
 13
    8.72
 23
    -2.50
 33
    70391025765931616000000000000000000000000000000000000000000000000000000000000000000000000000000000000000000000000000000000000000000000000000000000000000000000000000000000000000000000000000000000000000000000000000000000000000000000000000000000000000000000000000000000000.00
  0
SOLID
  8
ECHELLE
 10
    8.72
 20
    -1.79
 30
    70391025765931616000000000000000000000000000000000000000000000000000000000000000000000000000000000000000000000000000000000000000000000000000000000000000000000000000000000000000000000000000000000000000000000000000000000000000000000000000000000000000000000000000000000000.00
 11
    10.72
 21
    -1.79
 31
    70391025765931616000000000000000000000000000000000000000000000000000000000000000000000000000000000000000000000000000000000000000000000000000000000000000000000000000000000000000000000000000000000000000000000000000000000000000000000000000000000000000000000000000000000000.00
 12
    8.72
 22
    -2.14
 32
    70391025765931616000000000000000000000000000000000000000000000000000000000000000000000000000000000000000000000000000000000000000000000000000000000000000000000000000000000000000000000000000000000000000000000000000000000000000000000000000000000000000000000000000000000000.00
 13
    10.72
 23
    -2.14
 33
    70391025765931616000000000000000000000000000000000000000000000000000000000000000000000000000000000000000000000000000000000000000000000000000000000000000000000000000000000000000000000000000000000000000000000000000000000000000000000000000000000000000000000000000000000000.00
  0
SOLID
  8
ECHELLE
 10
    10.72
 20
    -2.14
 30
    70391025765931616000000000000000000000000000000000000000000000000000000000000000000000000000000000000000000000000000000000000000000000000000000000000000000000000000000000000000000000000000000000000000000000000000000000000000000000000000000000000000000000000000000000000.00
 11
    20.72
 21
    -2.14
 31
    70391025765931616000000000000000000000000000000000000000000000000000000000000000000000000000000000000000000000000000000000000000000000000000000000000000000000000000000000000000000000000000000000000000000000000000000000000000000000000000000000000000000000000000000000000.00
 12
    10.72
 22
    -2.50
 32
    70391025765931616000000000000000000000000000000000000000000000000000000000000000000000000000000000000000000000000000000000000000000000000000000000000000000000000000000000000000000000000000000000000000000000000000000000000000000000000000000000000000000000000000000000000.00
 13
    20.72
 23
    -2.50
 33
    70391025765931616000000000000000000000000000000000000000000000000000000000000000000000000000000000000000000000000000000000000000000000000000000000000000000000000000000000000000000000000000000000000000000000000000000000000000000000000000000000000000000000000000000000000.00
  0
ENDSEC
  0
EOF
