  0
SECTION
  2
HEADER
  0
ENDSEC
  0
SECTION
  2
TABLES
  0
TABLE
  2
LAYER
  0
LAYER
  2
CHEMINEMENTS
 70
    64
 62
    1
  6
CONTINUOUS
  0
LAYER
  2
POINTS
 70
    64
 62
    6
  6
CONTINUOUS
  0
LAYER
  2
STATIONS
 70
    64
 62
    7
  6
CONTINUOUS
  0
LAYER
  2
PROFONDEURS
 70
    64
 62
    2
  6
CONTINUOUS
  0
LAYER
  2
HAUTEURS
 70
    64
 62
    4
  6
CONTINUOUS
  0
LAYER
  2
ECHELLE
 70
    64
 62
    7
  6
CONTINUOUS
  0
ENDTAB
  0
ENDSEC
  0
SECTION
  2
ENTITIES
  0
LINE
  8
CHEMINEMENTS
 10
    0.00
 20
    0.00
 30
    0.00
 11
    0.00
 21
    0.00
 31
    0.00
  0
CIRCLE
  8
POINTS
 10
    0.00
 20
    0.00
 30
    0.00
 40
    0.2
  0
LINE
  8
HAUTEURS
 10
    0.00
 20
    -0.50
 30
    0.00
 11
    0.00
 21
    7.00
 31
    0.00
  0
TEXT
  8
STATIONS
 10
    -0.20
 20
    0.00
 30
    0.00
 11
    -0.20
 21
    0.00
 31
    0.00
 40
    0.4
 72
    2
  1
0
  0
TEXT
  8
PROFONDEURS
 10
    0.20
 20
    0.00
 30
    0.00
 40
    0.6
  1
+0
  0
LINE
  8
CHEMINEMENTS
 10
    0.00
 20
    0.00
 30
    0.00
 11
    3.91
 21
    -1.00
 31
    0.00
  0
CIRCLE
  8
POINTS
 10
    3.91
 20
    -1.00
 30
    0.00
 40
    0.2
  0
LINE
  8
HAUTEURS
 10
    3.91
 20
    -2.00
 30
    0.00
 11
    3.91
 21
    -0.00
 31
    0.00
  0
TEXT
  8
STATIONS
 10
    3.71
 20
    -1.00
 30
    0.00
 11
    3.71
 21
    -1.00
 31
    0.00
 40
    0.4
 72
    2
  1
XA-07-1
  0
LINE
  8
CHEMINEMENTS
 10
    3.91
 20
    -1.00
 30
    0.00
 11
    7.70
 21
    -1.36
 31
    0.00
  0
CIRCLE
  8
POINTS
 10
    7.70
 20
    -1.36
 30
    0.00
 40
    0.2
  0
LINE
  8
HAUTEURS
 10
    7.70
 20
    -1.56
 30
    0.00
 11
    7.70
 21
    -0.66
 31
    0.00
  0
TEXT
  8
STATIONS
 10
    7.50
 20
    -1.36
 30
    0.00
 11
    7.50
 21
    -1.36
 31
    0.00
 40
    0.4
 72
    2
  1
XA-07-2
  0
LINE
  8
CHEMINEMENTS
 10
    7.70
 20
    -1.36
 30
    0.00
 11
    9.12
 21
    -2.12
 31
    0.00
  0
CIRCLE
  8
POINTS
 10
    9.12
 20
    -2.12
 30
    0.00
 40
    0.2
  0
LINE
  8
HAUTEURS
 10
    9.12
 20
    -3.12
 30
    0.00
 11
    9.12
 21
    -0.62
 31
    0.00
  0
TEXT
  8
STATIONS
 10
    8.92
 20
    -2.12
 30
    0.00
 11
    8.92
 21
    -2.12
 31
    0.00
 40
    0.4
 72
    2
  1
XA-07-3
  0
LINE
  8
CHEMINEMENTS
 10
    9.12
 20
    -2.12
 30
    0.00
 11
    17.46
 21
    -1.46
 31
    0.00
  0
CIRCLE
  8
POINTS
 10
    17.46
 20
    -1.46
 30
    0.00
 40
    0.2
  0
LINE
  8
HAUTEURS
 10
    17.46
 20
    -2.96
 30
    0.00
 11
    17.46
 21
    0.54
 31
    0.00
  0
TEXT
  8
STATIONS
 10
    17.26
 20
    -1.46
 30
    0.00
 11
    17.26
 21
    -1.46
 31
    0.00
 40
    0.4
 72
    2
  1
XA-07-4
  0
LINE
  8
CHEMINEMENTS
 10
    17.46
 20
    -1.46
 30
    0.00
 11
    26.86
 21
    0.80
 31
    0.00
  0
CIRCLE
  8
POINTS
 10
    26.86
 20
    0.80
 30
    0.00
 40
    0.2
  0
LINE
  8
HAUTEURS
 10
    26.86
 20
    -0.20
 30
    0.00
 11
    26.86
 21
    2.80
 31
    0.00
  0
TEXT
  8
STATIONS
 10
    26.66
 20
    0.80
 30
    0.00
 11
    26.66
 21
    0.80
 31
    0.00
 40
    0.4
 72
    2
  1
fil-S4
  0
LINE
  8
CHEMINEMENTS
 10
    26.86
 20
    0.80
 30
    0.00
 11
    33.39
 21
    1.31
 31
    0.00
  0
CIRCLE
  8
POINTS
 10
    33.39
 20
    1.31
 30
    0.00
 40
    0.2
  0
LINE
  8
HAUTEURS
 10
    33.39
 20
    0.31
 30
    0.00
 11
    33.39
 21
    4.31
 31
    0.00
  0
TEXT
  8
STATIONS
 10
    33.19
 20
    1.31
 30
    0.00
 11
    33.19
 21
    1.31
 31
    0.00
 40
    0.4
 72
    2
  1
INTERS
  0
LINE
  8
CHEMINEMENTS
 10
    33.39
 20
    1.31
 30
    0.00
 11
    41.92
 21
    -0.46
 31
    0.00
  0
CIRCLE
  8
POINTS
 10
    41.92
 20
    -0.46
 30
    0.00
 40
    0.2
  0
LINE
  8
HAUTEURS
 10
    41.92
 20
    -0.56
 30
    0.00
 11
    41.92
 21
    -0.16
 31
    0.00
  0
TEXT
  8
STATIONS
 10
    41.72
 20
    -0.46
 30
    0.00
 11
    41.72
 21
    -0.46
 31
    0.00
 40
    0.4
 72
    2
  1
XA-07-7
  0
LINE
  8
CHEMINEMENTS
 10
    41.92
 20
    -0.46
 30
    0.00
 11
    47.52
 21
    2.50
 31
    0.00
  0
CIRCLE
  8
POINTS
 10
    47.52
 20
    2.50
 30
    0.00
 40
    0.2
  0
LINE
  8
HAUTEURS
 10
    47.52
 20
    2.00
 30
    0.00
 11
    47.52
 21
    3.50
 31
    0.00
  0
TEXT
  8
STATIONS
 10
    47.32
 20
    2.50
 30
    0.00
 11
    47.32
 21
    2.50
 31
    0.00
 40
    0.4
 72
    2
  1
XA-07-8
  0
LINE
  8
CHEMINEMENTS
 10
    47.52
 20
    2.50
 30
    0.00
 11
    52.14
 21
    5.04
 31
    0.00
  0
CIRCLE
  8
POINTS
 10
    52.14
 20
    5.04
 30
    0.00
 40
    0.2
  0
LINE
  8
HAUTEURS
 10
    52.14
 20
    4.04
 30
    0.00
 11
    52.14
 21
    12.04
 31
    0.00
  0
TEXT
  8
STATIONS
 10
    51.94
 20
    5.04
 30
    0.00
 11
    51.94
 21
    5.04
 31
    0.00
 40
    0.4
 72
    2
  1
XA-07-9
  0
LINE
  8
CHEMINEMENTS
 10
    52.14
 20
    5.04
 30
    0.00
 11
    57.66
 21
    9.91
 31
    0.00
  0
CIRCLE
  8
POINTS
 10
    57.66
 20
    9.91
 30
    0.00
 40
    0.2
  0
LINE
  8
HAUTEURS
 10
    57.66
 20
    8.41
 30
    0.00
 11
    57.66
 21
    14.91
 31
    0.00
  0
TEXT
  8
STATIONS
 10
    57.46
 20
    9.91
 30
    0.00
 11
    57.46
 21
    9.91
 31
    0.00
 40
    0.4
 72
    2
  1
XA-07-10
  0
LINE
  8
CHEMINEMENTS
 10
    57.66
 20
    9.91
 30
    0.00
 11
    61.92
 21
    12.52
 31
    0.00
  0
CIRCLE
  8
POINTS
 10
    61.92
 20
    12.52
 30
    0.00
 40
    0.2
  0
LINE
  8
HAUTEURS
 10
    61.92
 20
    11.02
 30
    0.00
 11
    61.92
 21
    14.52
 31
    0.00
  0
TEXT
  8
STATIONS
 10
    61.72
 20
    12.52
 30
    0.00
 11
    61.72
 21
    12.52
 31
    0.00
 40
    0.4
 72
    2
  1
XA-07-11
  0
LINE
  8
CHEMINEMENTS
 10
    61.92
 20
    12.52
 30
    0.00
 11
    62.60
 21
    13.86
 31
    0.00
  0
CIRCLE
  8
POINTS
 10
    62.60
 20
    13.86
 30
    0.00
 40
    0.2
  0
LINE
  8
HAUTEURS
 10
    62.60
 20
    13.36
 30
    0.00
 11
    62.60
 21
    15.36
 31
    0.00
  0
TEXT
  8
STATIONS
 10
    62.40
 20
    13.86
 30
    0.00
 11
    62.40
 21
    13.86
 31
    0.00
 40
    0.4
 72
    2
  1
XA-07-12
  0
LINE
  8
CHEMINEMENTS
 10
    62.60
 20
    13.86
 30
    0.00
 11
    66.85
 21
    18.10
 31
    0.00
  0
CIRCLE
  8
POINTS
 10
    66.85
 20
    18.10
 30
    0.00
 40
    0.2
  0
LINE
  8
HAUTEURS
 10
    66.85
 20
    17.10
 30
    0.00
 11
    66.85
 21
    20.10
 31
    0.00
  0
TEXT
  8
STATIONS
 10
    66.65
 20
    18.10
 30
    0.00
 11
    66.65
 21
    18.10
 31
    0.00
 40
    0.4
 72
    2
  1
XA-07-13
  0
TEXT
  8
PROFONDEURS
 10
    67.05
 20
    18.10
 30
    0.00
 40
    0.6
  1
+18
  0
TEXT
  8
ECHELLE
 10
    0.00
 20
    -4.86
 30
    0.00
 40
    0.6
  1
0
  0
TEXT
  8
ECHELLE
 10
    20.87
 20
    -4.86
 30
    0.00
 40
    0.6
  1
20 m
  0
LINE
  8
ECHELLE
 10
    0.58
 20
    -4.28
 30
    0.00
 11
    20.58
 21
    -4.28
 31
    0.00
  0
LINE
  8
ECHELLE
 10
    20.58
 20
    -4.28
 30
    0.00
 11
    20.58
 21
    -4.86
 31
    0.00
  0
LINE
  8
ECHELLE
 10
    20.58
 20
    -4.86
 30
    0.00
 11
    0.58
 21
    -4.86
 31
    0.00
  0
LINE
  8
ECHELLE
 10
    0.58
 20
    -4.86
 30
    0.00
 11
    0.58
 21
    -4.28
 31
    0.00
  0
SOLID
  8
ECHELLE
 10
    0.58
 20
    -4.28
 30
    0.00
 11
    2.58
 21
    -4.28
 31
    0.00
 12
    0.58
 22
    -4.57
 32
    0.00
 13
    2.58
 23
    -4.57
 33
    0.00
  0
SOLID
  8
ECHELLE
 10
    2.58
 20
    -4.57
 30
    0.00
 11
    4.58
 21
    -4.57
 31
    0.00
 12
    2.58
 22
    -4.86
 32
    0.00
 13
    4.58
 23
    -4.86
 33
    0.00
  0
SOLID
  8
ECHELLE
 10
    4.58
 20
    -4.28
 30
    0.00
 11
    6.58
 21
    -4.28
 31
    0.00
 12
    4.58
 22
    -4.57
 32
    0.00
 13
    6.58
 23
    -4.57
 33
    0.00
  0
SOLID
  8
ECHELLE
 10
    6.58
 20
    -4.57
 30
    0.00
 11
    8.58
 21
    -4.57
 31
    0.00
 12
    6.58
 22
    -4.86
 32
    0.00
 13
    8.58
 23
    -4.86
 33
    0.00
  0
SOLID
  8
ECHELLE
 10
    8.58
 20
    -4.28
 30
    0.00
 11
    10.58
 21
    -4.28
 31
    0.00
 12
    8.58
 22
    -4.57
 32
    0.00
 13
    10.58
 23
    -4.57
 33
    0.00
  0
SOLID
  8
ECHELLE
 10
    10.58
 20
    -4.57
 30
    0.00
 11
    20.58
 21
    -4.57
 31
    0.00
 12
    10.58
 22
    -4.86
 32
    0.00
 13
    20.58
 23
    -4.86
 33
    0.00
  0
ENDSEC
  0
EOF
