  0
SECTION
  2
HEADER
  0
ENDSEC
  0
SECTION
  2
TABLES
  0
TABLE
  2
LAYER
  0
LAYER
  2
CHEMINEMENTS
 70
    64
 62
    1
  6
CONTINUOUS
  0
LAYER
  2
POINTS
 70
    64
 62
    6
  6
CONTINUOUS
  0
LAYER
  2
STATIONS
 70
    64
 62
    7
  6
CONTINUOUS
  0
LAYER
  2
PROFONDEURS
 70
    64
 62
    2
  6
CONTINUOUS
  0
LAYER
  2
LARGEURS
 70
    64
 62
    4
  6
CONTINUOUS
  0
LAYER
  2
ECHELLE
 70
    64
 62
    7
  6
CONTINUOUS
  0
ENDTAB
  0
ENDSEC
  0
SECTION
  2
ENTITIES
  0
LINE
  8
CHEMINEMENTS
 10
    0.00
 20
    0.00
 30
    0.00
 11
    0.00
 21
    0.00
 31
    0.00
  0
CIRCLE
  8
POINTS
 10
    0.00
 20
    0.00
 30
    0.00
 40
    0.2
  0
LINE
  8
LARGEURS
 10
    -0.97
 20
    -0.23
 30
    0.00
 11
    0.97
 21
    0.23
 31
    0.00
  0
TEXT
  8
STATIONS
 10
    -0.20
 20
    0.00
 30
    0.00
 11
    -0.20
 21
    0.00
 31
    0.00
 40
    0.4
 72
    2
  1
0
  0
TEXT
  8
PROFONDEURS
 10
    0.20
 20
    0.00
 30
    0.00
 40
    0.6
  1
+0
  0
LINE
  8
CHEMINEMENTS
 10
    0.00
 20
    0.00
 30
    0.00
 11
    -0.91
 21
    3.80
 31
    0.00
  0
CIRCLE
  8
POINTS
 10
    -0.91
 20
    3.80
 30
    0.00
 40
    0.2
  0
LINE
  8
LARGEURS
 10
    -1.15
 20
    3.48
 30
    0.00
 11
    -0.74
 21
    4.05
 31
    0.00
  0
TEXT
  8
STATIONS
 10
    -1.11
 20
    3.80
 30
    0.00
 11
    -1.11
 21
    3.80
 31
    0.00
 40
    0.4
 72
    2
  1
XA-07-1
  0
LINE
  8
CHEMINEMENTS
 10
    -0.91
 20
    3.80
 30
    0.00
 11
    -4.68
 21
    3.51
 31
    0.00
  0
CIRCLE
  8
POINTS
 10
    -4.68
 20
    3.51
 30
    0.00
 40
    0.2
  0
LINE
  8
LARGEURS
 10
    -4.92
 20
    3.18
 30
    0.00
 11
    -4.51
 21
    3.75
 31
    0.00
  0
TEXT
  8
STATIONS
 10
    -4.88
 20
    3.51
 30
    0.00
 11
    -4.88
 21
    3.51
 31
    0.00
 40
    0.4
 72
    2
  1
XA-07-2
  0
LINE
  8
CHEMINEMENTS
 10
    -4.68
 20
    3.51
 30
    0.00
 11
    -5.02
 21
    4.89
 31
    0.00
  0
CIRCLE
  8
POINTS
 10
    -5.02
 20
    4.89
 30
    0.00
 40
    0.2
  0
LINE
  8
LARGEURS
 10
    -5.32
 20
    3.94
 30
    0.00
 11
    -4.11
 21
    7.75
 31
    0.00
  0
TEXT
  8
STATIONS
 10
    -5.22
 20
    4.89
 30
    0.00
 11
    -5.22
 21
    4.89
 31
    0.00
 40
    0.4
 72
    2
  1
XA-07-3
  0
LINE
  8
CHEMINEMENTS
 10
    -5.02
 20
    4.89
 30
    0.00
 11
    -11.28
 21
    -0.63
 31
    0.00
  0
CIRCLE
  8
POINTS
 10
    -11.28
 20
    -0.63
 30
    0.00
 40
    0.2
  0
LINE
  8
LARGEURS
 10
    -9.52
 20
    -1.59
 30
    0.00
 11
    -12.15
 21
    -0.14
 31
    0.00
  0
TEXT
  8
STATIONS
 10
    -11.48
 20
    -0.63
 30
    0.00
 11
    -11.48
 21
    -0.63
 31
    0.00
 40
    0.4
 72
    2
  1
XA-07-4
  0
LINE
  8
CHEMINEMENTS
 10
    -11.28
 20
    -0.63
 30
    0.00
 11
    -12.75
 21
    -9.90
 31
    0.00
  0
CIRCLE
  8
POINTS
 10
    -12.75
 20
    -9.90
 30
    0.00
 40
    0.2
  0
LINE
  8
LARGEURS
 10
    -10.75
 20
    -9.90
 30
    0.00
 11
    -14.75
 21
    -9.90
 31
    0.00
  0
TEXT
  8
STATIONS
 10
    -12.95
 20
    -9.90
 30
    0.00
 11
    -12.95
 21
    -9.90
 31
    0.00
 40
    0.4
 72
    2
  1
fil-S4
  0
LINE
  8
CHEMINEMENTS
 10
    -12.75
 20
    -9.90
 30
    0.00
 11
    -11.72
 21
    -16.35
 31
    0.00
  0
CIRCLE
  8
POINTS
 10
    -11.72
 20
    -16.35
 30
    0.00
 40
    0.2
  0
LINE
  8
LARGEURS
 10
    -4.92
 20
    -14.72
 30
    0.00
 11
    -14.64
 21
    -17.05
 31
    0.00
  0
TEXT
  8
STATIONS
 10
    -11.92
 20
    -16.35
 30
    0.00
 11
    -11.92
 21
    -16.35
 31
    0.00
 40
    0.4
 72
    2
  1
INTERS
  0
LINE
  8
CHEMINEMENTS
 10
    -11.72
 20
    -16.35
 30
    0.00
 11
    -9.09
 21
    -24.47
 31
    0.00
  0
CIRCLE
  8
POINTS
 10
    -9.09
 20
    -24.47
 30
    0.00
 40
    0.2
  0
LINE
  8
LARGEURS
 10
    -8.65
 20
    -24.23
 30
    0.00
 11
    -9.96
 21
    -24.96
 31
    0.00
  0
TEXT
  8
STATIONS
 10
    -9.29
 20
    -24.47
 30
    0.00
 11
    -9.29
 21
    -24.47
 31
    0.00
 40
    0.4
 72
    2
  1
XA-07-7
  0
LINE
  8
CHEMINEMENTS
 10
    -9.09
 20
    -24.47
 30
    0.00
 11
    -5.45
 21
    -28.73
 31
    0.00
  0
CIRCLE
  8
POINTS
 10
    -5.45
 20
    -28.73
 30
    0.00
 40
    0.2
  0
LINE
  8
LARGEURS
 10
    0.76
 20
    -25.50
 30
    0.00
 11
    -6.78
 21
    -29.42
 31
    0.00
  0
TEXT
  8
STATIONS
 10
    -5.65
 20
    -28.73
 30
    0.00
 11
    -5.65
 21
    -28.73
 31
    0.00
 40
    0.4
 72
    2
  1
XA-07-8
  0
LINE
  8
CHEMINEMENTS
 10
    -5.45
 20
    -28.73
 30
    0.00
 11
    -4.30
 21
    -33.20
 31
    0.00
  0
CIRCLE
  8
POINTS
 10
    -4.30
 20
    -33.20
 30
    0.00
 40
    0.2
  0
LINE
  8
LARGEURS
 10
    -2.81
 20
    -33.34
 30
    0.00
 11
    -6.29
 21
    -33.01
 31
    0.00
  0
TEXT
  8
STATIONS
 10
    -4.50
 20
    -33.20
 30
    0.00
 11
    -4.50
 21
    -33.20
 31
    0.00
 40
    0.4
 72
    2
  1
XA-07-9
  0
LINE
  8
CHEMINEMENTS
 10
    -4.30
 20
    -33.20
 30
    0.00
 11
    -6.65
 21
    -38.20
 31
    0.00
  0
CIRCLE
  8
POINTS
 10
    -6.65
 20
    -38.20
 30
    0.00
 40
    0.2
  0
LINE
  8
LARGEURS
 10
    -5.74
 20
    -38.60
 30
    0.00
 11
    -9.40
 21
    -36.98
 31
    0.00
  0
TEXT
  8
STATIONS
 10
    -6.85
 20
    -38.20
 30
    0.00
 11
    -6.85
 21
    -38.20
 31
    0.00
 40
    0.4
 72
    2
  1
XA-07-10
  0
LINE
  8
CHEMINEMENTS
 10
    -6.65
 20
    -38.20
 30
    0.00
 11
    -8.29
 21
    -42.14
 31
    0.00
  0
CIRCLE
  8
POINTS
 10
    -8.29
 20
    -42.14
 30
    0.00
 40
    0.2
  0
LINE
  8
LARGEURS
 10
    -6.31
 20
    -42.46
 30
    0.00
 11
    -9.27
 21
    -41.97
 31
    0.00
  0
TEXT
  8
STATIONS
 10
    -8.49
 20
    -42.14
 30
    0.00
 11
    -8.49
 21
    -42.14
 31
    0.00
 40
    0.4
 72
    2
  1
XA-07-11
  0
LINE
  8
CHEMINEMENTS
 10
    -8.29
 20
    -42.14
 30
    0.00
 11
    -8.24
 21
    -42.81
 31
    0.00
  0
CIRCLE
  8
POINTS
 10
    -8.24
 20
    -42.81
 30
    0.00
 40
    0.2
  0
LINE
  8
LARGEURS
 10
    -7.31
 20
    -43.17
 30
    0.00
 11
    -9.65
 21
    -42.28
 31
    0.00
  0
TEXT
  8
STATIONS
 10
    -8.44
 20
    -42.81
 30
    0.00
 11
    -8.44
 21
    -42.81
 31
    0.00
 40
    0.4
 72
    2
  1
XA-07-12
  0
LINE
  8
CHEMINEMENTS
 10
    -8.24
 20
    -42.81
 30
    0.00
 11
    -11.24
 21
    -45.81
 31
    0.00
  0
CIRCLE
  8
POINTS
 10
    -11.24
 20
    -45.81
 30
    0.00
 40
    0.2
  0
LINE
  8
LARGEURS
 10
    -10.18
 20
    -46.88
 30
    0.00
 11
    -12.66
 21
    -44.40
 31
    0.00
  0
TEXT
  8
STATIONS
 10
    -11.44
 20
    -45.81
 30
    0.00
 11
    -11.44
 21
    -45.81
 31
    0.00
 40
    0.4
 72
    2
  1
XA-07-13
  0
TEXT
  8
PROFONDEURS
 10
    -11.04
 20
    -45.81
 30
    0.00
 40
    0.6
  1
+18
  0
TEXT
  8
ECHELLE
 10
    -14.75
 20
    -50.97
 30
    0.00
 40
    1.4
  1
0
  0
TEXT
  8
ECHELLE
 10
    -7.70
 20
    -50.97
 30
    0.00
 40
    1.4
  1
5 m
  0
LINE
  8
ECHELLE
 10
    -13.38
 20
    -49.61
 30
    0.00
 11
    -8.38
 21
    -49.61
 31
    0.00
  0
LINE
  8
ECHELLE
 10
    -8.38
 20
    -49.61
 30
    0.00
 11
    -8.38
 21
    -50.97
 31
    0.00
  0
LINE
  8
ECHELLE
 10
    -8.38
 20
    -50.97
 30
    0.00
 11
    -13.38
 21
    -50.97
 31
    0.00
  0
LINE
  8
ECHELLE
 10
    -13.38
 20
    -50.97
 30
    0.00
 11
    -13.38
 21
    -49.61
 31
    0.00
  0
SOLID
  8
ECHELLE
 10
    -13.38
 20
    -49.61
 30
    0.00
 11
    -12.88
 21
    -49.61
 31
    0.00
 12
    -13.38
 22
    -50.29
 32
    0.00
 13
    -12.88
 23
    -50.29
 33
    0.00
  0
SOLID
  8
ECHELLE
 10
    -12.88
 20
    -50.29
 30
    0.00
 11
    -12.38
 21
    -50.29
 31
    0.00
 12
    -12.88
 22
    -50.97
 32
    0.00
 13
    -12.38
 23
    -50.97
 33
    0.00
  0
SOLID
  8
ECHELLE
 10
    -12.38
 20
    -49.61
 30
    0.00
 11
    -11.88
 21
    -49.61
 31
    0.00
 12
    -12.38
 22
    -50.29
 32
    0.00
 13
    -11.88
 23
    -50.29
 33
    0.00
  0
SOLID
  8
ECHELLE
 10
    -11.88
 20
    -50.29
 30
    0.00
 11
    -11.38
 21
    -50.29
 31
    0.00
 12
    -11.88
 22
    -50.97
 32
    0.00
 13
    -11.38
 23
    -50.97
 33
    0.00
  0
SOLID
  8
ECHELLE
 10
    -11.38
 20
    -49.61
 30
    0.00
 11
    -10.88
 21
    -49.61
 31
    0.00
 12
    -11.38
 22
    -50.29
 32
    0.00
 13
    -10.88
 23
    -50.29
 33
    0.00
  0
SOLID
  8
ECHELLE
 10
    -10.88
 20
    -50.29
 30
    0.00
 11
    -8.38
 21
    -50.29
 31
    0.00
 12
    -10.88
 22
    -50.97
 32
    0.00
 13
    -8.38
 23
    -50.97
 33
    0.00
  0
ENDSEC
  0
EOF
